<svg width="1892" height="1892" viewBox="0 0 1892 1892" fill="none" xmlns="http://www.w3.org/2000/svg">
<path d="M1892 946C1892 424.754 1467.25 0 946 0C423.808 0 0 424.754 0 946C0 1468.19 423.808 1892 946 1892C1467.25 1892 1892 1468.19 1892 946ZM735.988 1454L413.402 588.412C465.432 586.52 524.084 580.844 524.084 580.844C571.384 575.168 565.708 473.946 518.408 475.838C518.408 475.838 381.238 486.244 294.206 486.244C277.178 486.244 259.204 486.244 239.338 485.298C315.986 367.927 420.818 271.628 544.26 205.198C667.702 138.767 805.82 104.321 946 105.006C1166.42 105.006 1366.97 187.308 1518.33 326.37C1454 315.964 1362.24 363.264 1362.24 475.838C1362.24 545.842 1404.81 604.494 1447.38 674.498C1480.49 732.204 1499.41 803.154 1499.41 907.214C1499.41 1048.17 1366.97 1380.21 1366.97 1380.21L1080.33 588.412C1131.42 586.52 1157.9 572.33 1157.9 572.33C1205.2 567.6 1199.53 454.08 1152.23 456.918C1152.23 456.918 1016 468.27 927.08 468.27C844.778 468.27 706.662 456.918 706.662 456.918C659.362 454.08 653.686 570.438 700.986 572.33L788.018 579.898L907.214 902.484L735.988 1454ZM1646.99 946C1669.69 885.456 1716.99 769.098 1687.66 543.95C1753.88 665.984 1786.99 800.316 1786.99 946C1786.99 1257.23 1623.34 1536.3 1370.75 1681.99C1462.52 1436.97 1554.28 1190.07 1646.99 946ZM577.06 1711.31C295.152 1575.09 105.006 1279.94 105.006 946C105.006 823.02 126.764 711.392 173.118 606.386C307.45 974.38 441.782 1343.32 577.06 1711.31ZM958.298 1084.12L1202.37 1744.42C1121.01 1771.86 1035.87 1786.99 946 1786.99C871.266 1786.99 797.478 1776.59 729.366 1755.78C805.992 1530.63 882.618 1307.37 958.298 1084.12V1084.12Z" fill="#0094FF"/>
</svg>
