<?xml version="1.0" encoding="utf-8"?>
<!-- Generator: Adobe Illustrator 23.0.3, SVG Export Plug-In . SVG Version: 6.00 Build 0)  -->
<svg version="1.1" id="Layer_3" xmlns="http://www.w3.org/2000/svg" xmlns:xlink="http://www.w3.org/1999/xlink" x="0px" y="0px"
	 viewBox="0 0 250.1 54.8" style="enable-background:new 0 0 250.1 54.8;" xml:space="preserve">
<style type="text/css">
	.st0{fill:#3FBEEE;}
	.st1{fill-rule:evenodd;clip-rule:evenodd;fill:#3FBEEE;}
</style>
<g>
	<path d="M42.2,12.4h-7.8v3.3l2.4,0.2l-1,18c0,0.3-0.1,0.6-0.3,0.7c-0.2,0.2-0.4,0.3-0.7,0.3L33.4,35v3.1h9.1v-3.3L40,34.7l0.8-14.3
		h0.1l5.9,15.3h3.7l5.9-15.4h0.1l0.7,13.6c0,0.4-0.1,0.6-0.3,0.8c-0.2,0.1-0.4,0.2-0.8,0.2L54.7,35v3.1H64v-3.3l-2.4-0.1l-1-17.7
		c0-0.5,0.1-0.9,0.3-1c0.2-0.2,0.5-0.3,0.8-0.3l1.3-0.1v-3.1h-7.6l-6.6,17.5h-0.1L42.2,12.4z"/>
	<path d="M73.1,18.7h-6.9v3.2l1.4,0.1c0.4,0,0.6,0.1,0.8,0.2c0.1,0.2,0.2,0.5,0.2,0.9v10.7c0,0.5-0.1,0.8-0.3,0.9
		c-0.2,0.2-0.5,0.3-0.8,0.3l-1.3,0.1v2.9h9.2V35l-2.2-0.1V18.7z M67.4,13.3c0,0.5,0.1,1,0.4,1.5c0.2,0.4,0.6,0.8,1,1
		c0.4,0.2,1,0.4,1.6,0.4c0.6,0,1.1-0.1,1.5-0.4c0.4-0.2,0.8-0.6,1-1c0.3-0.4,0.4-0.9,0.4-1.5c0-0.5-0.1-1-0.4-1.5
		c-0.3-0.4-0.6-0.8-1-1c-0.4-0.3-0.9-0.4-1.5-0.4c-0.6,0-1.1,0.1-1.6,0.4c-0.4,0.3-0.8,0.6-1,1C67.5,12.3,67.4,12.8,67.4,13.3z"/>
	<path d="M87.6,21.6c0.3,0.1,0.6,0.3,0.7,0.5c0.1,0.2,0.2,0.5,0.2,0.8v1.6l3.5-0.3v-4.6c-0.5-0.3-1.1-0.5-1.7-0.7
		c-0.7-0.2-1.4-0.4-2.2-0.6c-0.8-0.2-1.6-0.2-2.5-0.2c-1,0-2,0.1-2.9,0.4c-0.9,0.3-1.7,0.7-2.4,1.2c-0.7,0.5-1.2,1.2-1.6,1.9
		c-0.4,0.8-0.6,1.6-0.6,2.7c0,1.1,0.2,1.9,0.5,2.6c0.3,0.7,0.8,1.3,1.4,1.7c0.6,0.4,1.2,0.8,1.9,1c0.7,0.3,1.4,0.5,2.1,0.6
		c0.7,0.2,1.3,0.4,1.9,0.5c0.6,0.2,1,0.5,1.4,0.8c0.3,0.3,0.5,0.8,0.5,1.4c0,0.8-0.3,1.4-0.8,1.8c-0.5,0.4-1.3,0.6-2.3,0.6
		c-0.5,0-0.9,0-1.4-0.1c-0.4-0.1-0.8-0.2-1.2-0.3c-0.3-0.1-0.6-0.3-0.7-0.5c-0.1-0.2-0.2-0.5-0.2-0.8v-1.9l-3.5,0.3v5.4
		c0.6,0.3,1.2,0.5,2,0.7c0.8,0.2,1.6,0.3,2.5,0.4c0.9,0.1,1.7,0.1,2.6,0.1c1.4,0,2.7-0.2,3.8-0.7c1.1-0.5,2-1.2,2.7-2.1
		c0.7-0.9,1-2,1-3.4c0-1-0.2-1.9-0.6-2.6c-0.4-0.7-0.9-1.2-1.5-1.7c-0.6-0.4-1.3-0.8-2-1c-0.7-0.3-1.5-0.5-2.3-0.7
		c-0.6-0.2-1.2-0.3-1.8-0.6c-0.6-0.2-1-0.5-1.4-0.9c-0.4-0.4-0.5-0.8-0.5-1.4c0-0.5,0.1-0.9,0.4-1.3c0.3-0.3,0.6-0.6,1-0.8
		c0.4-0.2,0.9-0.3,1.5-0.3c0.5,0,0.9,0,1.2,0.1C86.9,21.4,87.3,21.5,87.6,21.6z"/>
	<path d="M105.1,21.6c0.3,0.1,0.6,0.3,0.7,0.5c0.1,0.2,0.2,0.5,0.2,0.8v1.6l3.5-0.3v-4.6c-0.5-0.3-1.1-0.5-1.7-0.7
		c-0.7-0.2-1.4-0.4-2.2-0.6c-0.8-0.2-1.6-0.2-2.5-0.2c-1,0-2,0.1-2.9,0.4c-0.9,0.3-1.7,0.7-2.4,1.2c-0.7,0.5-1.2,1.2-1.6,1.9
		c-0.4,0.8-0.6,1.6-0.6,2.7c0,1.1,0.2,1.9,0.5,2.6c0.3,0.7,0.8,1.3,1.4,1.7c0.6,0.4,1.2,0.8,1.9,1c0.7,0.3,1.4,0.5,2.1,0.6
		c0.7,0.2,1.3,0.4,1.9,0.5c0.6,0.2,1,0.5,1.4,0.8c0.3,0.3,0.5,0.8,0.5,1.4c0,0.8-0.3,1.4-0.8,1.8c-0.5,0.4-1.3,0.6-2.3,0.6
		c-0.5,0-0.9,0-1.4-0.1c-0.4-0.1-0.8-0.2-1.2-0.3c-0.3-0.1-0.6-0.3-0.7-0.5c-0.1-0.2-0.2-0.5-0.2-0.8v-1.9l-3.5,0.3v5.4
		c0.6,0.3,1.2,0.5,2,0.7c0.8,0.2,1.6,0.3,2.5,0.4c0.9,0.1,1.7,0.1,2.6,0.1c1.4,0,2.7-0.2,3.8-0.7c1.1-0.5,2-1.2,2.7-2.1
		c0.7-0.9,1-2,1-3.4c0-1-0.2-1.9-0.6-2.6c-0.4-0.7-0.9-1.2-1.5-1.7c-0.6-0.4-1.3-0.8-2-1c-0.8-0.3-1.5-0.5-2.3-0.7
		c-0.6-0.2-1.2-0.3-1.8-0.6c-0.6-0.2-1-0.5-1.4-0.9c-0.4-0.4-0.5-0.8-0.5-1.4c0-0.5,0.1-0.9,0.4-1.3c0.3-0.3,0.6-0.6,1-0.8
		c0.4-0.2,0.9-0.3,1.5-0.3c0.5,0,0.9,0,1.2,0.1C104.4,21.4,104.7,21.5,105.1,21.6z"/>
	<path class="st0" d="M137.1,33.6c0,0.5-0.1,0.8-0.3,1c-0.2,0.2-0.5,0.3-0.8,0.3l-1.3,0.1v3.1h9.3v-3.3l-2.2-0.1V16.9
		c0-0.5,0.1-0.8,0.3-0.9c0.2-0.2,0.5-0.3,0.8-0.3l1.3-0.1v-3.1h-9.3v3.3l2.2,0.1v7.1h-10.9v-6c0-0.5,0.1-0.8,0.3-1
		c0.2-0.2,0.5-0.3,0.9-0.3l1.3-0.1v-3.1h-9.3v3.3l2.2,0.1v18c0,0.4-0.1,0.6-0.3,0.8c-0.2,0.2-0.5,0.3-0.8,0.3l-1.3,0.1v3.1h9.3v-3.3
		l-2.2-0.1v-7.8h10.9V33.6z"/>
	<path class="st0" d="M155.5,35.3c-0.9,0-1.7-0.2-2.2-0.7c-0.6-0.4-1-1-1.3-1.7c-0.3-0.7-0.5-1.5-0.6-2.4c-0.1-0.9-0.1-1.8-0.1-2.7
		c0-1.3,0.1-2.3,0.4-3.3c0.3-0.9,0.8-1.7,1.4-2.2c0.6-0.5,1.5-0.8,2.5-0.8c1,0,1.8,0.3,2.4,0.9c0.6,0.6,1,1.4,1.3,2.4
		c0.3,1,0.4,2.3,0.4,3.7c0,1.3-0.1,2.5-0.4,3.5c-0.3,1-0.7,1.8-1.4,2.4C157.3,35,156.5,35.3,155.5,35.3z M146.6,28.4
		c0,2.3,0.4,4.3,1.1,5.8c0.7,1.5,1.7,2.7,3,3.4c1.3,0.7,2.8,1.1,4.5,1.1c1.3,0,2.5-0.2,3.6-0.6c1.1-0.4,2.1-1.1,2.9-2
		c0.8-0.9,1.5-2,2-3.4c0.5-1.4,0.7-3,0.7-4.8c0-1.8-0.2-3.2-0.6-4.4c-0.4-1.2-0.9-2.1-1.6-2.9c-0.7-0.7-1.4-1.3-2.1-1.6
		c-0.8-0.4-1.5-0.6-2.3-0.7c-0.7-0.1-1.4-0.2-2-0.2c-0.8,0-1.6,0.1-2.5,0.3c-0.9,0.2-1.7,0.5-2.5,1c-0.8,0.5-1.5,1.1-2.1,1.9
		c-0.6,0.8-1.1,1.8-1.5,2.9C146.8,25.4,146.6,26.8,146.6,28.4z"/>
	<path class="st0" d="M177.1,21.6c0.3,0.1,0.6,0.3,0.7,0.5c0.1,0.2,0.2,0.5,0.2,0.8v1.6l3.5-0.3v-4.6c-0.5-0.3-1.1-0.5-1.8-0.7
		c-0.7-0.2-1.4-0.4-2.2-0.6c-0.8-0.2-1.6-0.2-2.5-0.2c-1,0-2,0.1-2.9,0.4c-0.9,0.3-1.7,0.7-2.4,1.2c-0.7,0.5-1.2,1.2-1.6,1.9
		c-0.4,0.8-0.6,1.6-0.6,2.7c0,1.1,0.2,1.9,0.5,2.6c0.4,0.7,0.8,1.3,1.4,1.7c0.6,0.4,1.2,0.8,1.9,1c0.7,0.3,1.4,0.5,2.1,0.6
		c0.7,0.2,1.3,0.4,1.9,0.5c0.6,0.2,1,0.5,1.4,0.8c0.3,0.3,0.5,0.8,0.5,1.4c0,0.8-0.3,1.4-0.8,1.8c-0.5,0.4-1.3,0.6-2.3,0.6
		c-0.5,0-0.9,0-1.3-0.1c-0.4-0.1-0.8-0.2-1.2-0.3c-0.3-0.1-0.6-0.3-0.7-0.5c-0.1-0.2-0.2-0.5-0.2-0.8v-1.9l-3.5,0.3v5.4
		c0.5,0.3,1.2,0.5,2,0.7c0.8,0.2,1.6,0.3,2.5,0.4c0.9,0.1,1.7,0.1,2.6,0.1c1.4,0,2.6-0.2,3.8-0.7c1.1-0.5,2-1.2,2.7-2.1
		c0.7-0.9,1-2,1-3.4c0-1-0.2-1.9-0.6-2.6c-0.4-0.7-0.9-1.2-1.5-1.7c-0.6-0.4-1.3-0.8-2-1c-0.7-0.3-1.5-0.5-2.3-0.7
		c-0.6-0.2-1.2-0.3-1.8-0.6c-0.6-0.2-1-0.5-1.4-0.9c-0.4-0.4-0.5-0.8-0.5-1.4c0-0.5,0.1-0.9,0.4-1.3c0.3-0.3,0.6-0.6,1-0.8
		c0.4-0.2,0.9-0.3,1.5-0.3c0.5,0,0.9,0,1.2,0.1C176.4,21.4,176.8,21.5,177.1,21.6z"/>
	<path class="st0" d="M188.3,14.6c-0.3,0.7-0.6,1.4-0.9,2.1c-0.3,0.7-0.8,1.2-1.4,1.6c-0.6,0.4-1.3,0.7-2.2,0.8l-0.4,2.8h2.7v10.3
		c0,0.5,0,1.1,0,1.7c0,0.6,0.1,1.2,0.3,1.7c0.2,0.6,0.5,1.1,0.9,1.5c0.4,0.4,1,0.8,1.8,1.1c0.8,0.3,1.7,0.4,2.9,0.4
		c0.6,0,1.2-0.1,1.8-0.2c0.6-0.1,1.2-0.3,1.7-0.5c0.5-0.2,1-0.4,1.4-0.7l-1.2-3c-0.3,0.2-0.7,0.4-1.2,0.5c-0.5,0.2-0.9,0.3-1.5,0.3
		c-0.5,0-1-0.1-1.4-0.3c-0.4-0.2-0.7-0.5-0.9-0.9c-0.2-0.4-0.3-1.1-0.3-1.8V21.9h4.8l0.4-3.2h-5.1v-4.1H188.3z"/>
	<path class="st0" d="M205.6,18.7h-6.9v3.2L200,22c0.4,0,0.6,0.1,0.8,0.2c0.1,0.2,0.2,0.5,0.2,0.9v10.7c0,0.5-0.1,0.8-0.3,0.9
		c-0.2,0.2-0.5,0.3-0.8,0.3l-1.3,0.1v2.9h9.2V35l-2.2-0.1V18.7z M199.9,13.3c0,0.5,0.1,1,0.4,1.5c0.2,0.4,0.6,0.8,1,1
		c0.4,0.2,1,0.4,1.5,0.4c0.6,0,1.1-0.1,1.5-0.4c0.4-0.2,0.8-0.6,1-1c0.3-0.4,0.4-0.9,0.4-1.5c0-0.5-0.1-1-0.4-1.5
		c-0.3-0.4-0.6-0.8-1-1c-0.4-0.3-0.9-0.4-1.5-0.4c-0.6,0-1.1,0.1-1.6,0.4c-0.4,0.3-0.8,0.6-1,1C200,12.3,199.9,12.8,199.9,13.3z"/>
	<path class="st0" d="M209.8,21.8l1.6,0.1c0.3,0,0.6,0.1,0.7,0.3c0.2,0.2,0.2,0.5,0.2,0.9v10.7c0,0.5-0.1,0.8-0.3,1
		c-0.2,0.2-0.5,0.3-0.8,0.3l-1.3,0.1v2.9h9.2V35l-2.2-0.1v-9.3c0-0.7,0.2-1.3,0.5-1.9c0.3-0.6,0.8-1.1,1.4-1.4
		c0.6-0.4,1.3-0.5,2.2-0.6c0.9,0,1.5,0.2,2,0.5c0.5,0.3,0.8,0.8,0.9,1.4c0.2,0.6,0.2,1.4,0.2,2.2v8c0,0.5-0.1,0.8-0.3,1
		c-0.2,0.2-0.5,0.3-0.8,0.3l-1.3,0.1v2.9h9.2V35l-2.2-0.1V24.8c0-2.3-0.6-4-1.6-5.1c-1.1-1.1-2.6-1.7-4.5-1.6
		c-0.9,0-1.7,0.1-2.5,0.4c-0.8,0.3-1.5,0.6-2.1,1.1c-0.6,0.5-1.2,1-1.7,1.7v-2.5h-6.5V21.8z"/>
	<path class="st0" d="M241.1,46.4c1.9,0,3.5-0.3,4.8-0.9c1.3-0.6,2.2-1.5,2.9-2.7c0.7-1.2,1.1-2.8,1.2-4.7c0.1-0.7,0.1-1.4,0.1-2.1
		c0-0.7,0-1.4,0-2.1V19.6c-0.8-0.3-1.6-0.6-2.5-0.8c-0.9-0.2-1.7-0.4-2.5-0.5c-0.8-0.1-1.5-0.2-2.2-0.2c-1.5,0-2.8,0.2-4,0.6
		c-1.2,0.4-2.3,1-3.2,1.9c-0.9,0.8-1.6,1.9-2.1,3.2c-0.5,1.3-0.7,2.8-0.8,4.6c0,1.1,0.1,2.2,0.4,3.3c0.3,1.1,0.7,2,1.3,2.9
		c0.6,0.9,1.4,1.6,2.3,2.1c1,0.5,2.2,0.8,3.6,0.8c1,0,1.9-0.2,2.8-0.5c0.9-0.3,1.7-0.9,2.4-1.7v2.1c0,1.1-0.1,2.1-0.4,2.9
		c-0.3,0.9-0.7,1.5-1.4,2c-0.7,0.5-1.6,0.7-2.7,0.8c-0.6,0-1.1,0-1.5-0.1c-0.4-0.1-0.9-0.2-1.2-0.3c-0.3-0.1-0.6-0.3-0.7-0.5
		c-0.1-0.2-0.2-0.5-0.2-0.9v-1.9l-3.7,0.3v5.4c0.6,0.3,1.2,0.5,2.1,0.7c0.8,0.2,1.7,0.3,2.6,0.4C239.4,46.3,240.3,46.4,241.1,46.4z
		 M245.6,30.2c0,0.8-0.2,1.5-0.5,2c-0.4,0.6-0.8,1-1.4,1.3c-0.6,0.3-1.3,0.5-2,0.5c-0.9,0-1.6-0.2-2.1-0.6c-0.5-0.4-0.9-0.9-1.2-1.5
		c-0.3-0.6-0.5-1.3-0.5-2c-0.1-0.7-0.1-1.4-0.1-2.1c0-1.3,0.2-2.4,0.6-3.4c0.4-1,0.9-1.7,1.6-2.2c0.7-0.5,1.6-0.8,2.7-0.8
		c0.5,0,1.1,0,1.6,0.1c0.5,0.1,1,0.2,1.5,0.3V30.2z"/>
	<path class="st1" d="M18.1,53.9c0.3-5.6-1.7-9.2-6.5-10.2c-6.5-0.6-8.9-2-8.3-4.1c0.4-2.1-0.2-3.6-1.4-4.9c-0.9-1.3-0.7-2.3,0.5-3
		c-0.9-0.6-1-1.1-0.7-1.6c0.6-1,1.1-2.6,0.8-3c-0.8-0.5-1.6-1.1-2.2-1.7c-1-1.8,1.1-3.6,3.3-5.4c1.8-1.9,2-4.5,1.7-7.2
		c0.2-5.5,2.5-9.7,6.7-12.7c-0.1,0.1-0.1,0.2-0.1,0.3c0.1-0.1,0.2-0.3,0.3-0.4c0,0-0.1,0-0.1,0c0,0,0.1-0.1,0.1-0.1c0,0,0,0,0,0
		c0.4-0.2,1.2-0.1,1.6,0.1c2.3,0.8,3.9,3.4,4.9,5.6c1.6,3.8-0.5,8.4,0.9,12.2c0.6,1.6,2.1,2.9,3.4,4.1c0,0.3,0,0.6,0,1
		c0.2,4.7-0.3,9.7-3.3,13.4c-1.9,2.4-4.7,4-7.5,5.1c1.9,0.2,3.7,0.1,5.5-0.3c-1.5,1.1-3.1,1.9-4.8,2.5c1.8,0.2,3.8,0.1,5.5-0.3
		c0.2,0,0.5-0.1,0.7-0.2c-0.8,0.4-1.7,0.8-2.5,1.2c1.8,0.1,3.8,0.1,5.5-0.3c0.5-0.1,1.1-0.3,1.6-0.4c0.1,0.1,0.2,0.2,0.3,0.2
		c0,0.2,0.1,0.5,0.1,0.7c0.2,1.2,0.7,2.4,1.5,3.4c0.9,1.3,2.1,2.3,3.5,3.1c-1.1-1.7-1.9-3.8-1.9-5.8c0,0,0,0,0-0.1
		c0.7,0.2,1.4,0.3,2,0.5c0,0.2-0.1,0.4-0.1,0.7c-0.1,0.8-0.1,1.7,0.1,2.5c0.1,0.7,0.4,1.4,0.7,2c0.4,0.8,0.9,1.4,1.4,1.9
		C27,54.9,22.1,55.4,18.1,53.9z M33.8,50.7c-0.2-0.3-0.4-0.6-0.5-1c0,0,0,0,0,0c0,0,0-0.1,0-0.1c0,0,0,0.1,0,0.1
		c-0.3-0.9-0.2-1.7,0.1-2.6c0.6,0.2,1.3,0.5,1.8,0.9c-0.1,0.3-0.1,0.6-0.2,0.9c-0.1,0.6-0.1,1.2,0,1.9c-0.2,0.2-0.5,0.4-0.7,0.5
		C34.1,51.1,33.9,50.9,33.8,50.7z"/>
</g>
</svg>
